<svg xmlns="http://www.w3.org/2000/svg" xml:space="preserve" width="123" height="123" version="1.1" viewBox="0 0 25.08 25.08" shape-rendering="geometricPrecision" text-rendering="geometricPrecision" image-rendering="optimizeQuality" fill-rule="evenodd" clip-rule="evenodd"><defs><style type="text/css">.fil0{fill:#7a95bf}</style></defs><g id="Слой_x0020_1"><g id="Group_922" data-name="BACK TO TOP"><g id="Group_922-2" data-name="Group 922"><g id="Group_923" data-name="Group 923"><path id="Path_494" class="fil0" d="M12.63 19.1c-.66 0-1.19-.53-1.19-1.19V9.44c.01-.65.54-1.16 1.19-1.16.65 0 1.18.51 1.2 1.16v8.47c-.01.66-.54 1.19-1.2 1.19zm0 0z" data-name="Path 494"/><path id="Path_495" class="fil0" d="M7.22 12.59c-.22-.22-.35-.53-.35-.84 0-.32.13-.62.35-.85l4.54-4.54.02-.03c.22-.22.52-.34.82-.34l.03-.01.03.01c.31 0 .6.13.82.34l.03.03 4.53 4.54c.25.23.4.55.4.89 0 .66-.54 1.19-1.2 1.19-.34 0-.66-.14-.89-.39l-3.72-3.72-3.72 3.72c-.23.22-.53.35-.85.35-.31 0-.62-.13-.84-.35zm0 0z" data-name="Path 495"/></g></g><g id="Path_535" data-name="Path 535"><path d="M12.54 0c6.92 0 12.54 5.62 12.54 12.54 0 6.92-5.62 12.54-12.54 12.54C5.62 25.08 0 19.46 0 12.54 0 5.62 5.62 0 12.54 0z" fill="none"/><path d="M12.54 2.55c-2.67 0-5.18 1.04-7.07 2.92a9.964 9.964 0 00-2.92 7.07c0 2.67 1.04 5.18 2.92 7.07a9.932 9.932 0 007.07 2.93c2.67 0 5.18-1.04 7.07-2.93a9.932 9.932 0 002.93-7.07c0-2.67-1.04-5.18-2.93-7.07a9.964 9.964 0 00-7.07-2.92zm0-2.55c6.93 0 12.54 5.62 12.54 12.54 0 6.93-5.61 12.54-12.54 12.54C5.61 25.08 0 19.47 0 12.54 0 5.62 5.61 0 12.54 0z" fill="#7a95bf" fill-rule="nonzero"/></g></g></g></svg>