<svg xmlns="http://www.w3.org/2000/svg" xml:space="preserve" width="199" height="152" version="1.1" viewBox="0 0 22.25 16.97" shape-rendering="geometricPrecision" text-rendering="geometricPrecision" image-rendering="optimizeQuality" fill-rule="evenodd" clip-rule="evenodd"><g id="Слой_x0020_1"><path d="M2.66 16.16c.56.04 1.95.5 2.86.61.81.1 2.67.28 3.45.16l.21-.7 1.4-6.07-2.95-1.05 1.93-7.66C9.06 1.15 5.59-.02 5.02 0 3.63 2.61 2.34 5.29 1.09 7.93c-3.03 6.43 1.19 7.82 1.57 8.23zm5.59-.15l1.31-5.29c-.5-.13-2.09-.65-2.43-.86-.75-.47-.18-1.73.04-2.61.4-1.57 1.11-3.75 1.32-5.27l-2.94-.93c-.64.74-3.98 7.89-4.33 9.08-.66 2.23-.2 3.92 1.29 4.87 1.09.69 4.22 1.17 5.74 1.01zm5.67-.03c.43.04.93.32 1.42.45 1.44.38 3.86.6 5.32.53l.16-.65 1.43-6.15-2.97-1.01 1.94-7.7C20.8 1.19 17.13-.01 16.68 0l-3.87 7.79c-.96 2.05-1.8 4.67-.35 6.83.63.93 1.13.9 1.46 1.36zm5.98.04l1.32-5.31c-.42-.08-2.12-.66-2.43-.85-.75-.48-.18-1.74.04-2.61.42-1.59 1.08-3.68 1.33-5.28l-2.96-.92c-.51.59-3.97 7.89-4.33 9.09-.66 2.18-.15 3.93 1.3 4.86 1.15.73 4.14 1.14 5.73 1.02z" id="_1955829876224" fill="currentColor"/></g></svg>