<svg xmlns="http://www.w3.org/2000/svg" xml:space="preserve" width="200" height="150" version="1.1" viewBox="0 0 41.04 30.84" shape-rendering="geometricPrecision" text-rendering="geometricPrecision" image-rendering="optimizeQuality" fill-rule="evenodd" clip-rule="evenodd"><g id="Слой_x0020_1"><path d="M0 11.59c1.54 1.01 4.03 1.35 5.5 2.18.23 2.2-3.05 11.56-3.47 14.69.91.6 6.02 2.27 7.28 2.38l4.54-9.28c2.48-4.98 8.58-14.98 1.1-19.4C11.64.21 7.01.23 2.76.01L0 11.59zm22.49 0c1.54 1 4.04 1.34 5.5 2.18.2 2-2.96 11.69-3.48 14.69.95.61 6.01 2.27 7.29 2.38.53-1.44 1.52-3.08 2.22-4.55.79-1.65 1.55-3.12 2.33-4.7 2.52-5.13 8.69-15.21.83-19.58C34.77.67 28.4-.29 25.29.08l-2.8 11.51z" id="_1990342199408" fill="currentColor"/></g></svg>