<svg id="LinkedIn_CTA" data-name="LinkedIn CTA" xmlns="http://www.w3.org/2000/svg" width="38.641" height="37.951" viewBox="0 0 38.641 37.951"><defs><clipPath id="clip-path"><path id="Path_56" data-name="Path 56" d="M19.321-36.6A17.109 17.109 0 002.079-19.672 17.109 17.109 0 0019.321-2.739a17.108 17.108 0 0017.24-16.933A17.108 17.108 0 0019.321-36.6m0 35.909A19.172 19.172 0 010-19.672a19.172 19.172 0 0119.321-18.975 19.172 19.172 0 0119.32 18.975A19.172 19.172 0 0119.321-.7" transform="translate(0 38.647)" fill="#2c7c99"/></clipPath><clipPath id="clip-path-2"><path id="Path_58" data-name="Path 58" d="M10.321-10h3.7a.317.317 0 00.321-.312V-22.39a.317.317 0 00-.321-.312h-3.7a.317.317 0 00-.321.312v12.078a.317.317 0 00.321.312M30-17.284v6.972a.317.317 0 01-.321.312h-3.7a.316.316 0 01-.321-.312V-16.8c0-1.706-.628-2.871-2.2-2.871a2.37 2.37 0 00-2.228 1.543 2.824 2.824 0 00-.144 1.029v6.782a.317.317 0 01-.321.313h-3.7a.316.316 0 01-.321-.313c.008-1.726.046-10.1.008-12.073a.314.314 0 01.321-.316h3.693a.317.317 0 01.321.312v1.494c-.008.014-.021.028-.029.042h.029v-.042A4.333 4.333 0 0125-23c2.857 0 5 1.815 5 5.716" transform="translate(-10 23)" fill="#2c7c99"/></clipPath><clipPath id="clip-path-3"><path id="Path_60" data-name="Path 60" d="M15-27.5a2.5 2.5 0 01-2.5 2.5 2.5 2.5 0 01-2.5-2.5 2.5 2.5 0 012.5-2.5 2.5 2.5 0 012.5 2.5" transform="translate(-10 30)" fill="#2c7c99"/></clipPath></defs><g id="Group_171" data-name="Group 171" clip-path="url(#clip-path)"><path id="Path_55" data-name="Path 55" d="M-5-43.647h48.64V4.3H-5z" transform="translate(0 38.647)" fill="inherit"/></g><g id="Group_235" data-name="Group 235" transform="translate(10 8.647)"><g id="Group_172" data-name="Group 172" transform="translate(0 7)" clip-path="url(#clip-path-2)"><path id="Path_57" data-name="Path 57" d="M5-28h30v23H5z" transform="translate(-10 23)" fill="inherit"/></g><g id="Group_173" data-name="Group 173" clip-path="url(#clip-path-3)"><path id="Path_59" data-name="Path 59" d="M5-35h15v15H5z" transform="translate(-10 30)" fill="inherit"/></g></g></svg>