<?xml version="1.0" encoding="UTF-8"?>
<!DOCTYPE svg PUBLIC "-//W3C//DTD SVG 1.1//EN" "http://www.w3.org/Graphics/SVG/1.1/DTD/svg11.dtd">
<!-- Creator: CorelDRAW 2019 (64-Bit) -->
<svg xmlns="http://www.w3.org/2000/svg" xml:space="preserve" width="123px" height="123px" version="1.1" style="shape-rendering:geometricPrecision; text-rendering:geometricPrecision; image-rendering:optimizeQuality; fill-rule:evenodd; clip-rule:evenodd"
viewBox="0 0 25.08 25.08"
 xmlns:xlink="http://www.w3.org/1999/xlink"
 xmlns:xodm="http://www.corel.com/coreldraw/odm/2003">
 <defs>
  <style type="text/css">
   <![CDATA[
    .fil1 {fill:none}
    .fil0 {fill:#7A95BF}
    .fil2 {fill:#7A95BF;fill-rule:nonzero}
   ]]>
  </style>
 </defs>
 <g id="Слой_x0020_1">
  <metadata id="CorelCorpID_0Corel-Layer"/>
  <g id="Group_922" data-name="BACK TO TOP">
   <g id="Group_922-2" data-name="Group 922">
    <g id="Group_923" data-name="Group 923">
     <g>
      <path id="Path_494" class="fil0" d="M12.63 19.1l0 0c-0.66,0 -1.19,-0.53 -1.19,-1.19l0 -8.47c0.01,-0.65 0.54,-1.16 1.19,-1.16 0.65,0 1.18,0.51 1.2,1.16l0 8.47c-0.01,0.66 -0.54,1.19 -1.2,1.19l0 0zm0 0l0 0 0 0z" data-name="Path 494"/>
     </g>
     <g>
      <path id="Path_495" class="fil0" d="M7.22 12.59l0 0c-0.22,-0.22 -0.35,-0.53 -0.35,-0.84 0,-0.32 0.13,-0.62 0.35,-0.85l4.54 -4.54 0.02 -0.03c0.22,-0.22 0.52,-0.34 0.82,-0.34l0.03 -0.01 0.03 0.01c0.31,0 0.6,0.13 0.82,0.34 0.01,0.01 0.02,0.02 0.03,0.03l4.53 4.54c0.25,0.23 0.4,0.55 0.4,0.89 0,0.66 -0.54,1.19 -1.2,1.19 -0.34,0 -0.66,-0.14 -0.89,-0.39l-3.72 -3.72 -3.72 3.72c-0.23,0.22 -0.53,0.35 -0.85,0.35 -0.31,0 -0.62,-0.13 -0.84,-0.35l0 0zm0 0l0 0 0 0z" data-name="Path 495"/>
     </g>
    </g>
   </g>
   <g id="Path_535" data-name="Path 535">
    <path class="fil1" d="M12.54 0c6.92,0 12.54,5.62 12.54,12.54 0,6.92 -5.62,12.54 -12.54,12.54 -6.92,0 -12.54,-5.62 -12.54,-12.54 0,-6.92 5.62,-12.54 12.54,-12.54l0 0z"/>
    <g>
     <path class="fil2" d="M12.54 2.55c-2.67,0 -5.18,1.04 -7.07,2.92 -1.88,1.89 -2.92,4.4 -2.92,7.07 0,2.67 1.04,5.18 2.92,7.07 1.89,1.89 4.4,2.93 7.07,2.93 2.67,0 5.18,-1.04 7.07,-2.93 1.89,-1.89 2.93,-4.4 2.93,-7.07 0,-2.67 -1.04,-5.18 -2.93,-7.07 -1.89,-1.88 -4.4,-2.92 -7.07,-2.92l0 0zm0 -2.55c6.93,0 12.54,5.62 12.54,12.54 0,6.93 -5.61,12.54 -12.54,12.54 -6.93,0 -12.54,-5.61 -12.54,-12.54 0,-6.92 5.61,-12.54 12.54,-12.54z"/>
    </g>
   </g>
  </g>
 </g>
</svg>
