<?xml version="1.0" encoding="UTF-8"?>
<!DOCTYPE svg PUBLIC "-//W3C//DTD SVG 1.1//EN" "http://www.w3.org/Graphics/SVG/1.1/DTD/svg11.dtd">
<!-- Creator: CorelDRAW 2019 (64-Bit) -->
<svg xmlns="http://www.w3.org/2000/svg" xml:space="preserve" width="200px" height="150px" version="1.1" style="shape-rendering:geometricPrecision; text-rendering:geometricPrecision; image-rendering:optimizeQuality; fill-rule:evenodd; clip-rule:evenodd"
viewBox="0 0 41.04 30.84"
 xmlns:xlink="http://www.w3.org/1999/xlink"
 xmlns:xodm="http://www.corel.com/coreldraw/odm/2003">
 <g id="Слой_x0020_1">
  <metadata id="CorelCorpID_0Corel-Layer"/>
  <g id="_1990342199408">
   <path fill="currentColor" d="M0 11.59c1.54,1.01 4.03,1.35 5.5,2.18 0.23,2.2 -3.05,11.56 -3.47,14.69 0.91,0.6 6.02,2.27 7.28,2.38l4.54 -9.28c2.48,-4.98 8.58,-14.98 1.1,-19.4 -3.31,-1.95 -7.94,-1.93 -12.19,-2.15l-2.76 11.58z"/>
   <path fill="currentColor" d="M22.49 11.59c1.54,1 4.04,1.34 5.5,2.18 0.2,2 -2.96,11.69 -3.48,14.69 0.95,0.61 6.01,2.27 7.29,2.38 0.53,-1.44 1.52,-3.08 2.22,-4.55 0.79,-1.65 1.55,-3.12 2.33,-4.7 2.52,-5.13 8.69,-15.21 0.83,-19.58 -2.41,-1.34 -8.78,-2.3 -11.89,-1.93l-2.8 11.51z"/>
  </g>
 </g>
</svg>
