<?xml version="1.0" encoding="UTF-8"?>
<!DOCTYPE svg PUBLIC "-//W3C//DTD SVG 1.1//EN" "http://www.w3.org/Graphics/SVG/1.1/DTD/svg11.dtd">
<!-- Creator: CorelDRAW 2019 (64-Bit) -->
<svg xmlns="http://www.w3.org/2000/svg" xml:space="preserve" width="199px" height="152px" version="1.1" style="shape-rendering:geometricPrecision; text-rendering:geometricPrecision; image-rendering:optimizeQuality; fill-rule:evenodd; clip-rule:evenodd"
viewBox="0 0 22.25 16.97"
 xmlns:xlink="http://www.w3.org/1999/xlink"
 xmlns:xodm="http://www.corel.com/coreldraw/odm/2003">
 <g id="Слой_x0020_1">
  <metadata id="CorelCorpID_0Corel-Layer"/>
  <g id="_1955829876224">
   <path fill="currentColor" d="M2.66 16.16c0.56,0.04 1.95,0.5 2.86,0.61 0.81,0.1 2.67,0.28 3.45,0.16l0.21 -0.7 1.4 -6.07 -2.95 -1.05 1.93 -7.66c-0.5,-0.3 -3.97,-1.47 -4.54,-1.45 -1.39,2.61 -2.68,5.29 -3.93,7.93 -3.03,6.43 1.19,7.82 1.57,8.23zm5.59 -0.15l1.31 -5.29c-0.5,-0.13 -2.09,-0.65 -2.43,-0.86 -0.75,-0.47 -0.18,-1.73 0.04,-2.61 0.4,-1.57 1.11,-3.75 1.32,-5.27l-2.94 -0.93c-0.64,0.74 -3.98,7.89 -4.33,9.08 -0.66,2.23 -0.2,3.92 1.29,4.87 1.09,0.69 4.22,1.17 5.74,1.01z"/>
   <path fill="currentColor" d="M13.92 15.98c0.43,0.04 0.93,0.32 1.42,0.45 1.44,0.38 3.86,0.6 5.32,0.53l0.16 -0.65 1.43 -6.15 -2.97 -1.01 1.94 -7.7c-0.42,-0.26 -4.09,-1.46 -4.54,-1.45l-3.87 7.79c-0.96,2.05 -1.8,4.67 -0.35,6.83 0.63,0.93 1.13,0.9 1.46,1.36zm5.98 0.04l1.32 -5.31c-0.42,-0.08 -2.12,-0.66 -2.43,-0.85 -0.75,-0.48 -0.18,-1.74 0.04,-2.61 0.42,-1.59 1.08,-3.68 1.33,-5.28l-2.96 -0.92c-0.51,0.59 -3.97,7.89 -4.33,9.09 -0.66,2.18 -0.15,3.93 1.3,4.86 1.15,0.73 4.14,1.14 5.73,1.02z"/>
  </g>
 </g>
</svg>
