<?xml version="1.0" encoding="utf-8"?>
<!-- Generator: Adobe Illustrator 26.5.0, SVG Export Plug-In . SVG Version: 6.00 Build 0)  -->
<svg version="1.1" id="Layer_1" xmlns="http://www.w3.org/2000/svg" xmlns:xlink="http://www.w3.org/1999/xlink" x="0px" y="0px"
     viewBox="0 0 90 90" style="enable-background:new 0 0 90 90;" xml:space="preserve">
<style type="text/css">
	.st0{fill:none;stroke:#75CBC3;stroke-width:3;}
</style>
  <g>
	<path class="st0" d="M41.8,55.03c0,8.7-6.15,14.4-14.4,14.4c-8.4,0-14.55-5.85-14.55-14.4c0-3.9,0.6-6.75,4.05-15l8.7-21.6h14.85
		l-6.6,23.85C38.8,44.38,41.8,48.88,41.8,55.03z M77.2,55.03c0,8.7-6.15,14.4-14.4,14.4c-8.4,0-14.55-5.85-14.55-14.4
		c0-3.9,0.6-6.75,4.05-15l8.7-21.6h14.85l-6.6,23.85C74.2,44.38,77.2,48.88,77.2,55.03z"/>
</g>
</svg>