<?xml version="1.0" encoding="UTF-8"?>
<!DOCTYPE svg PUBLIC "-//W3C//DTD SVG 1.1//EN" "http://www.w3.org/Graphics/SVG/1.1/DTD/svg11.dtd">
<!-- Creator: CorelDRAW 2019 (64-Bit) -->
<svg id="LinkedIn_CTA" data-name="LinkedIn CTA" xmlns="http://www.w3.org/2000/svg" xmlns:xlink="http://www.w3.org/1999/xlink" width="38.641" height="37.951" viewBox="0 0 38.641 37.951">
  <defs>
    <clipPath id="clip-path">
      <path id="Path_56" data-name="Path 56" d="M19.321-36.6A17.109,17.109,0,0,0,2.079-19.672,17.109,17.109,0,0,0,19.321-2.739a17.108,17.108,0,0,0,17.24-16.933A17.108,17.108,0,0,0,19.321-36.6m0,35.909A19.172,19.172,0,0,1,0-19.672,19.172,19.172,0,0,1,19.321-38.647a19.172,19.172,0,0,1,19.32,18.975A19.172,19.172,0,0,1,19.321-.7" transform="translate(0 38.647)" fill="#2c7c99"/>
    </clipPath>
    <clipPath id="clip-path-2">
      <path id="Path_58" data-name="Path 58" d="M10.321-10h3.7a.317.317,0,0,0,.321-.312V-22.39a.317.317,0,0,0-.321-.312h-3.7A.317.317,0,0,0,10-22.39v12.078a.317.317,0,0,0,.321.312M30-17.284v6.972a.317.317,0,0,1-.321.312h-3.7a.316.316,0,0,1-.321-.312V-16.8c0-1.706-.628-2.871-2.2-2.871a2.37,2.37,0,0,0-2.228,1.543,2.824,2.824,0,0,0-.144,1.029v6.782a.317.317,0,0,1-.321.313h-3.7a.316.316,0,0,1-.321-.313c.008-1.726.046-10.1.008-12.073a.314.314,0,0,1,.321-.316h3.693a.317.317,0,0,1,.321.312V-20.9c-.008.014-.021.028-.029.042h.029V-20.9A4.333,4.333,0,0,1,25-23c2.857,0,5,1.815,5,5.716" transform="translate(-10 23)" fill="#2c7c99"/>
    </clipPath>
    <clipPath id="clip-path-3">
      <path id="Path_60" data-name="Path 60" d="M15-27.5A2.5,2.5,0,0,1,12.5-25,2.5,2.5,0,0,1,10-27.5,2.5,2.5,0,0,1,12.5-30,2.5,2.5,0,0,1,15-27.5" transform="translate(-10 30)" fill="#2c7c99"/>
    </clipPath>
  </defs>
  <g id="Group_171" data-name="Group 171" clip-path="url(#clip-path)">
    <path id="Path_55" data-name="Path 55" d="M-5-43.647h48.64V4.3H-5Z" transform="translate(0 38.647)" fill="inherit"/>
  </g>
  <g id="Group_235" data-name="Group 235" transform="translate(10 8.647)">
    <g id="Group_172" data-name="Group 172" transform="translate(0 7)" clip-path="url(#clip-path-2)">
      <path id="Path_57" data-name="Path 57" d="M5-28H35V-5H5Z" transform="translate(-10 23)" fill="inherit"/>
    </g>
    <g id="Group_173" data-name="Group 173" clip-path="url(#clip-path-3)">
      <path id="Path_59" data-name="Path 59" d="M5-35H20v15H5Z" transform="translate(-10 30)" fill="inherit"/>
    </g>
  </g>
</svg>
